<svg width="50" height="50" viewBox="0 0 50 50" fill="none" xmlns="http://www.w3.org/2000/svg">
<rect width="50" height="50" rx="10" fill="white"/>
<path d="M29.9897 28.3715C29.9501 29.3522 30.2824 30.3121 30.9214 31.0632C31.2503 31.3566 31.6354 31.5817 32.054 31.7253C32.4725 31.8688 32.916 31.9279 33.3581 31.899C34.0632 31.9186 34.7562 31.7151 35.3361 31.3182C35.8003 31.0259 36.157 30.5938 36.3537 30.0857H39.6647C39.2976 31.5273 38.4302 32.7957 37.2137 33.6699C36.0212 34.4075 34.6354 34.782 33.2291 34.7465C32.2489 34.7485 31.2769 34.5708 30.3624 34.2224C29.5277 33.913 28.77 33.4298 28.1407 32.8057C27.5101 32.1395 27.0226 31.354 26.7074 30.4965C26.0411 28.6019 26.0411 26.5404 26.7074 24.6457C27.023 23.7842 27.5104 22.9942 28.1407 22.3224C28.7632 21.6519 29.5197 21.1164 30.3624 20.7499C31.2666 20.3627 32.2437 20.1696 33.2291 20.1832C34.2735 20.1258 35.3163 20.3203 36.2677 20.7499C37.1181 21.1922 37.8539 21.8224 38.4177 22.5915C38.9852 23.3861 39.3938 24.2804 39.6217 25.2265C39.8709 26.2363 39.958 27.2784 39.8797 28.3149H29.9897V28.3715ZM35.2501 23.7815C34.967 23.5108 34.6289 23.3026 34.2582 23.1707C33.8876 23.0388 33.4928 22.9863 33.1001 23.0165C32.6044 23.0107 32.1141 23.1173 31.6667 23.3282C31.2994 23.513 30.9767 23.774 30.7207 24.0932C30.4888 24.3824 30.3182 24.7149 30.2191 25.0707C30.1322 25.3715 30.0746 25.6799 30.0471 25.9915H36.1961C36.1238 25.1748 35.7928 24.4015 35.2501 23.7815ZM29.2157 16.4999H36.8984V18.4124H29.2157V16.4999ZM22.9091 33.0749C22.258 33.5385 21.5234 33.8751 20.7447 34.0665C19.9363 34.2811 19.1021 34.3859 18.2651 34.3782H9.07739V15.2532H18.0214C18.8545 15.2407 19.6864 15.3215 20.5011 15.494C21.1834 15.6312 21.8313 15.9008 22.4074 16.2874C22.9347 16.647 23.3592 17.1349 23.6401 17.704C23.9459 18.4105 24.0926 19.1743 24.0701 19.9424C24.099 20.7923 23.8693 21.6312 23.4107 22.3507C22.9208 23.041 22.2526 23.5889 21.4757 23.9374C22.533 24.2056 23.4583 24.8387 24.0844 25.7224C24.6745 26.6389 24.9693 27.7109 24.9301 28.7965C24.9517 29.6648 24.7598 30.5252 24.3711 31.304C24.0426 32.0067 23.5397 32.6159 22.9091 33.0749ZM19.7987 19.6024C19.647 19.328 19.4244 19.0983 19.1537 18.9365C18.8715 18.7688 18.5606 18.6535 18.2364 18.5965C17.8754 18.5481 17.5114 18.5244 17.1471 18.5257H13.2627V23.0024H17.5627C18.2186 23.036 18.8663 22.8459 19.3974 22.464C19.6334 22.2483 19.8147 21.9808 19.9267 21.683C20.0388 21.3852 20.0784 21.0656 20.0424 20.7499C20.0563 20.3535 19.9727 19.9598 19.7987 19.6024ZM19.9707 26.4165C19.339 25.9653 18.5705 25.7404 17.7921 25.779H13.2627V31.0632H17.7204C18.1158 31.0652 18.5102 31.0225 18.8957 30.9357C19.2342 30.9038 19.5642 30.8127 19.8704 30.6665C20.1587 30.4741 20.3909 30.2103 20.5441 29.9015C20.7274 29.512 20.8111 29.0839 20.7877 28.6549C20.8498 28.2441 20.8076 27.8245 20.665 27.4338C20.5224 27.0431 20.2838 26.6936 19.9707 26.4165Z" fill="black"/>
</svg>
