<svg width="50" height="50" viewBox="0 0 50 50" fill="none" xmlns="http://www.w3.org/2000/svg">
<rect width="50" height="50" rx="10" fill="white"/>
<path d="M19.832 24.418L6.13281 35.3855V13.5488L14.2867 20.0129L19.832 24.418Z" fill="#020202"/>
<path d="M14.016 17.7076L7.66675 12.6709H42.3331L35.9839 17.7076L28.3468 23.7615L24.9999 26.3619L21.6531 23.7615L14.016 17.7076Z" fill="#020202"/>
<path d="M28.8391 25.459L43.6621 37.3289H6.33789L21.1609 25.459L24.4996 28.043C24.516 28.0594 24.5406 28.0676 24.557 28.084C24.8277 28.2562 25.1805 28.2562 25.4512 28.084C25.4676 28.0676 25.4922 28.0594 25.5086 28.043L28.8391 25.459Z" fill="#020202"/>
<path d="M43.8672 13.5488V35.3855L30.168 24.418L35.7133 20.0129L43.8672 13.5488Z" fill="#020202"/>
</svg>
