<svg width="50" height="50" viewBox="0 0 50 50" fill="none" xmlns="http://www.w3.org/2000/svg">
<rect width="50" height="50" rx="10" fill="white"/>
<path d="M25 11.8C29.2 11.8 29.8 11.8 31.4 11.8C33 11.8 33.8 12.2 34.4 12.4C35.2 12.6 35.6 13 36.2 13.6C36.8 14.2 37.2 14.6 37.4 15.4C37.6 16 37.8 16.8 38 18.4C38 20 38 20.6 38 24.8C38 29 38 29.6 38 31.2C38 32.8 37.6 33.6 37.4 34.2C37.2 35 36.8 35.4 36.2 36C35.6 36.6 35.2 37 34.4 37.2C33.8 37.4 33 37.6 31.4 37.8C29.8 37.8 29.2 37.8 25 37.8C20.8 37.8 20.2 37.8 18.6 37.8C17 37.8 16.2 37.4 15.6 37.2C14.8 37 14.4 36.6 13.8 36C13.2 35.4 12.8 35 12.6 34.2C12.4 33.6 12.2 32.8 12 31.2C12 29.6 12 29 12 24.8C12 20.6 12 20 12 18.4C12 16.8 12.4 16 12.6 15.4C12.8 14.6 13.2 14.2 13.8 13.6C14.4 13 14.8 12.6 15.6 12.4C16.2 12.2 17 12 18.6 11.8C20.2 11.8 20.8 11.8 25 11.8ZM25 9C20.6 9 20.2 9 18.4 9C16.6 9 15.6 9.4 14.6 9.8C13.6 10.2 12.6 10.8 11.8 11.6C10.8 12.6 10.2 13.4 9.8 14.6C9.4 15.6 9.2 16.8 9 18.4C9 20.2 9 20.6 9 25C9 29.4 9 29.8 9 31.6C9 33.4 9.4 34.4 9.8 35.4C10.2 36.4 10.8 37.4 11.6 38.2C12.4 39 13.4 39.6 14.4 40C15.4 40.4 16.6 40.6 18.2 40.8C20 40.8 20.4 40.8 24.8 40.8C29.2 40.8 29.6 40.8 31.4 40.8C33.2 40.8 34.2 40.4 35.2 40C36.2 39.6 37.2 39 38 38.2C38.8 37.4 39.4 36.4 39.8 35.4C40.2 34.4 40.4 33.2 40.6 31.6C40.6 29.8 40.6 29.4 40.6 25C40.6 20.6 40.6 20.2 40.6 18.4C40.6 16.6 40.2 15.6 39.8 14.6C39.4 13.6 38.8 12.6 38 11.8C37.2 11 36.2 10.4 35.2 10C34.2 9.6 33 9.4 31.4 9.2C29.8 9 29.4 9 25 9Z" fill="black"/>
<path d="M25 16.7998C20.4 16.7998 16.8 20.3998 16.8 24.9998C16.8 29.5998 20.4 33.1998 25 33.1998C29.6 33.1998 33.2001 29.5998 33.2001 24.9998C33.2001 20.3998 29.6 16.7998 25 16.7998ZM25 30.3998C22 30.3998 19.6 27.9998 19.6 24.9998C19.6 21.9998 22 19.5998 25 19.5998C28 19.5998 30.4001 21.9998 30.4001 24.9998C30.4001 27.9998 28 30.3998 25 30.3998Z" fill="black"/>
<path d="M35.4 16.4004C35.4 17.4004 34.6 18.4004 33.4 18.4004C32.2 18.4004 31.4 17.6004 31.4 16.4004C31.4 15.2004 32.2 14.4004 33.4 14.4004C34.6 14.4004 35.4 15.4004 35.4 16.4004Z" fill="black"/>
</svg>
