<svg width="50" height="50" viewBox="0 0 50 50" fill="none" xmlns="http://www.w3.org/2000/svg">
<rect width="50" height="50" rx="10" fill="white"/>
<path d="M30.7867 34.125V26.15C30.7867 24.225 30.1033 22.85 28.4633 22.85C27.0966 22.85 26.4133 23.8125 26.0033 24.6375C25.8667 24.9125 25.8667 25.325 25.8667 25.875V34.125H21.22C21.22 34.125 21.3567 20.65 21.22 19.275H25.8667V21.3375C26.4133 20.375 27.5067 18.8625 29.9667 18.8625C33.11 18.8625 35.4333 20.925 35.4333 25.6V34.125H30.7867ZM16.1633 17.2125C14.5233 17.2125 13.5667 16.1125 13.5667 14.7375C13.5667 13.225 14.66 12.125 16.1633 12.125C17.6666 12.125 18.76 13.225 18.76 14.7375C18.8967 16.1125 17.8033 17.2125 16.1633 17.2125ZM18.4867 34.125H13.84V19.275H18.4867V34.125Z" fill="black"/>
</svg>
